ffmpeg>log_compress.txt 2>&1 -f image2 -start_number 30 -i slice_0_0_%d.jpg -vcodec
 libx265 D:\study\Ometiff\0_0.mkv -preset ultrafast
ffmpeg version N-92288-gbdfd2e3c79 Copyright (c) 2000-2018 the FFmpeg developers
  built with gcc 8.2.1 (GCC) 20181017
  configuration: --enable-gpl --enable-version3 --enable-sdl2 --enable-fontconfig --enable-gnutls --enable-iconv --enable-libass --enable-libbluray --enable-libfreetype --enable-libmp3lame --enable-libopencore-amrnb --enable-libopencore-amrwb --enable-libopenjpeg --enable-libopus --enable-libshine --enable-libsnappy --enable-libsoxr --enable-libtheora --enable-libtwolame --enable-libvpx --enable-libwavpack --enable-libwebp --enable-libx264 --enable-libx265 --enable-libxml2 --enable-libzimg --enable-lzma --enable-zlib --enable-gmp --enable-libvidstab --enable-libvorbis --enable-libvo-amrwbenc --enable-libmysofa --enable-libspeex --enable-libxvid --enable-libaom --enable-libmfx --enable-amf --enable-ffnvcodec --enable-cuvid --enable-d3d11va --enable-nvenc --enable-nvdec --enable-dxva2 --enable-avisynth
  libavutil      56. 21.100 / 56. 21.100
  libavcodec     58. 34.100 / 58. 34.100
  libavformat    58. 19.102 / 58. 19.102
  libavdevice    58.  4.106 / 58.  4.106
  libavfilter     7. 38.100 /  7. 38.100
  libswscale      5.  2.100 /  5.  2.100
  libswresample   3.  2.100 /  3.  2.100
  libpostproc    55.  2.100 / 55.  2.100
Trailing options were found on the commandline.
Input #0, image2, from 'slice_0_0_%d.jpg':
  Duration: 00:00:32.76, start: 0.000000, bitrate: N/A
    Stream #0:0: Video: mjpeg, gray(bt470bg/unknown/unknown), 2048x788 [SAR 1:1 DAR 512:197], 25 fps, 25 tbr, 25 tbn, 25 tbc
Stream mapping:
  Stream #0:0 -> #0:0 (mjpeg (native) -> hevc (libx265))
Press [q] to stop, [?] for help
x265 [info]: HEVC encoder version 2.8+74-fd517ae68f93
x265 [info]: build info [Windows][GCC 8.2.1][64 bit] 8bit+10bit
x265 [info]: using cpu capabilities: MMX2 SSE2Fast LZCNT SSSE3 SSE4.2 AVX FMA3 BMI2 AVX2
x265 [info]: Unknown profile, Level-4 (Main tier)
x265 [info]: Thread pool created using 4 threads
x265 [info]: Slices                              : 1
x265 [info]: frame threads / pool features       : 2 / wpp(13 rows)
x265 [info]: Coding QT: max CU size, min CU size : 64 / 8
x265 [info]: Residual QT: max TU size, max depth : 32 / 1 inter / 1 intra
x265 [info]: ME / range / subpel / merge         : hex / 57 / 2 / 2
x265 [info]: Keyframe min / max / scenecut / bias: 25 / 250 / 40 / 5.00
x265 [info]: Lookahead / bframes / badapt        : 20 / 4 / 2
x265 [info]: b-pyramid / weightp / weightb       : 1 / 1 / 0
x265 [info]: References / ref-limit  cu / depth  : 3 / on / on
x265 [info]: AQ: mode / str / qg-size / cu-tree  : 1 / 1.0 / 32 / 1
x265 [info]: Rate Control / qCompress            : CRF-28.0 / 0.60
x265 [info]: tools: rd=3 psy-rd=2.00 rskip signhide tmvp strong-intra-smoothing
x265 [info]: tools: lslices=5 deblock sao
Output #0, matroska, to 'D:\study\Ometiff\0_0.mkv':
  Metadata:
    encoder         : Lavf58.19.102
    Stream #0:0: Video: hevc (libx265), gray, 2048x788 [SAR 1:1 DAR 512:197], q=2-31, 25 fps, 1k tbn, 25 tbc
    Metadata:
      encoder         : Lavc58.34.100 libx265
frame=   28 fps= 14 q=0.0 size=       3kB time=00:00:00.00 bitrate=N/A speed=   0x    frame=   30 fps=7.7 q=-0.0 size=       3kB time=-00:00:00.03 bitrate=N/A speed=N/A    frame=   31 fps=6.1 q=-0.0 size=       3kB time=00:00:00.00 bitrate=22320.0kbits/s speed=0.000196x    frame=   32 fps=5.6 q=-0.0 size=       3kB time=00:00:00.04 bitrate= 544.4kbits/s speed=0.00721x    frame=   34 fps=5.3 q=-0.0 size=       3kB time=00:00:00.12 bitrate= 184.5kbits/s speed=0.019x    frame=   36 fps=5.0 q=-0.0 size=       3kB time=00:00:00.20 bitrate= 111.0kbits/s speed=0.028x    frame=   38 fps=4.2 q=-0.0 size=       3kB time=00:00:00.28 bitrate=  79.4kbits/s speed=0.0311x    frame=   39 fps=3.8 q=-0.0 size=       3kB time=00:00:00.32 bitrate=  69.5kbits/s speed=0.0314x    frame=   40 fps=3.2 q=-0.0 size=       3kB time=00:00:00.36 bitrate=  61.8kbits/s speed=0.0285x    frame=   41 fps=2.9 q=-0.0 size=       3kB time=00:00:00.40 bitrate=  55.7kbits/s speed=0.0284x    frame=   43 fps=2.8 q=-0.0 size=       3kB time=00:00:00.48 bitrate=  46.4kbits/s speed=0.0318x    frame=   45 fps=2.9 q=-0.0 size=       3kB time=00:00:00.56 bitrate=  39.8kbits/s speed=0.0358x    frame=   47 fps=2.8 q=-0.0 size=       3kB time=00:00:00.64 bitrate=  34.8kbits/s speed=0.0385x    frame=   49 fps=2.8 q=-0.0 size=       3kB time=00:00:00.72 bitrate=  31.0kbits/s speed=0.0416x    frame=   51 fps=2.8 q=-0.0 size=       3kB time=00:00:00.80 bitrate=  27.9kbits/s speed=0.0438x    frame=   52 fps=2.8 q=-0.0 size=       3kB time=00:00:00.84 bitrate=  26.5kbits/s speed=0.0446x    frame=   54 fps=2.8 q=-0.0 size=       3kB time=00:00:00.92 bitrate=  24.2kbits/s speed=0.0473x    frame=   56 fps=2.8 q=-0.0 size=       3kB time=00:00:01.00 bitrate=  22.3kbits/s speed=0.0495x    frame=   57 fps=2.2 q=-0.0 size=       3kB time=00:00:01.04 bitrate=  21.4kbits/s speed=0.0406x    frame=   59 fps=2.2 q=-0.0 size=       3kB time=00:00:01.12 bitrate=  19.9kbits/s speed=0.0411x    frame=   62 fps=2.2 q=-0.0 size=       3kB time=00:00:01.24 bitrate=  18.0kbits/s speed=0.0437x    frame=   64 fps=2.2 q=-0.0 size=       3kB time=00:00:01.32 bitrate=  16.9kbits/s speed=0.0451x    frame=   66 fps=2.2 q=-0.0 size=       3kB time=00:00:01.40 bitrate=  15.9kbits/s speed=0.047x    frame=   68 fps=2.1 q=-0.0 size=       3kB time=00:00:01.48 bitrate=  15.1kbits/s speed=0.046x    frame=   69 fps=2.1 q=-0.0 size=       3kB time=00:00:01.52 bitrate=  14.7kbits/s speed=0.0464x    frame=   71 fps=2.1 q=-0.0 size=       3kB time=00:00:01.60 bitrate=  13.9kbits/s speed=0.0467x    frame=   73 fps=2.1 q=-0.0 size=       3kB time=00:00:01.68 bitrate=  13.3kbits/s speed=0.0473x    frame=   74 fps=2.0 q=-0.0 size=       3kB time=00:00:01.72 bitrate=  13.0kbits/s speed=0.0471x    frame=   75 fps=2.0 q=-0.0 size=       3kB time=00:00:01.76 bitrate=  12.7kbits/s speed=0.0476x    frame=   76 fps=2.0 q=-0.0 size=       3kB time=00:00:01.80 bitrate=  12.4kbits/s speed=0.0479x    frame=   78 fps=2.0 q=-0.0 size=       3kB time=00:00:01.88 bitrate=  11.9kbits/s speed=0.0487x    frame=   79 fps=2.0 q=-0.0 size=       3kB time=00:00:01.92 bitrate=  11.6kbits/s speed=0.049x    frame=   81 fps=2.0 q=-0.0 size=       3kB time=00:00:02.00 bitrate=  11.2kbits/s speed=0.0491x    frame=   83 fps=2.0 q=-0.0 size=       3kB time=00:00:02.08 bitrate=  10.7kbits/s speed=0.0494x    frame=   85 fps=2.0 q=-0.0 size=       3kB time=00:00:02.16 bitrate=  10.3kbits/s speed=0.0506x    frame=   86 fps=2.0 q=-0.0 size=       3kB time=00:00:02.20 bitrate=  10.1kbits/s speed=0.0502x    frame=   88 fps=2.0 q=-0.0 size=       3kB time=00:00:02.28 bitrate=   9.8kbits/s speed=0.0508x    frame=   90 fps=2.0 q=-0.0 size=       3kB time=00:00:02.36 bitrate=   9.5kbits/s speed=0.0517x    frame=   92 fps=2.0 q=-0.0 size=       3kB time=00:00:02.44 bitrate=   9.1kbits/s speed=0.0523x    frame=   93 fps=2.0 q=-0.0 size=       3kB time=00:00:02.48 bitrate=   9.0kbits/s speed=0.0525x    frame=   95 fps=2.0 q=-0.0 size=       3kB time=00:00:02.56 bitrate=   8.7kbits/s speed=0.0535x    frame=   97 fps=2.0 q=-0.0 size=       3kB time=00:00:02.64 bitrate=   8.5kbits/s speed=0.0546x    frame=   98 fps=2.0 q=-0.0 size=       3kB time=00:00:02.68 bitrate=   8.3kbits/s speed=0.0546x    frame=   99 fps=2.0 q=-0.0 size=       3kB time=00:00:02.72 bitrate=   8.2kbits/s speed=0.0543x    frame=  101 fps=2.0 q=-0.0 size=       3kB time=00:00:02.80 bitrate=   8.0kbits/s speed=0.0549x    frame=  102 fps=2.0 q=-0.0 size=       3kB time=00:00:02.84 bitrate=   7.9kbits/s speed=0.0551x    frame=  103 fps=2.0 q=-0.0 size=       3kB time=00:00:02.88 bitrate=   7.7kbits/s speed=0.0552x    frame=  104 fps=2.0 q=-0.0 size=       3kB time=00:00:02.92 bitrate=   7.6kbits/s speed=0.0554x    frame=  106 fps=2.0 q=-0.0 size=       3kB time=00:00:03.00 bitrate=   7.4kbits/s speed=0.0556x    frame=  107 fps=2.0 q=-0.0 size=       3kB time=00:00:03.04 bitrate=   7.3kbits/s speed=0.0556x    frame=  109 fps=2.0 q=-0.0 size=       3kB time=00:00:03.12 bitrate=   7.2kbits/s speed=0.0563x    frame=  111 fps=2.0 q=-0.0 size=       3kB time=00:00:03.20 bitrate=   7.0kbits/s speed=0.0572x    frame=  113 fps=2.0 q=-0.0 size=       3kB time=00:00:03.28 bitrate=   6.8kbits/s speed=0.0573x    frame=  114 fps=2.0 q=-0.0 size=       3kB time=00:00:03.32 bitrate=   6.7kbits/s speed=0.057x    frame=  116 fps=2.0 q=-0.0 size=       3kB time=00:00:03.40 bitrate=   6.6kbits/s speed=0.0572x    frame=  117 fps=1.9 q=-0.0 size=       3kB time=00:00:03.44 bitrate=   6.5kbits/s speed=0.0571x    frame=  118 fps=1.9 q=-0.0 size=       3kB time=00:00:03.48 bitrate=   6.4kbits/s speed=0.0572x    frame=  120 fps=1.9 q=-0.0 size=       3kB time=00:00:03.56 bitrate=   6.3kbits/s speed=0.0577x    frame=  122 fps=2.0 q=-0.0 size=       3kB time=00:00:03.64 bitrate=   6.1kbits/s speed=0.0585x    frame=  126 fps=2.0 q=-0.0 size=       3kB time=00:00:03.80 bitrate=   5.9kbits/s speed=0.0606x    frame=  127 fps=2.0 q=-0.0 size=       3kB time=00:00:03.84 bitrate=   5.8kbits/s speed=0.0603x    frame=  128 fps=1.9 q=-0.0 size=       3kB time=00:00:03.88 bitrate=   5.8kbits/s speed=0.0562x    frame=  129 fps=1.8 q=-0.0 size=       3kB time=00:00:03.92 bitrate=   5.7kbits/s speed=0.0559x    frame=  131 fps=1.8 q=-0.0 size=       3kB time=00:00:04.00 bitrate=   5.6kbits/s speed=0.056x    frame=  134 fps=1.8 q=-0.0 size=       3kB time=00:00:04.12 bitrate=   5.4kbits/s speed=0.0568x    frame=  136 fps=1.8 q=-0.0 size=       3kB time=00:00:04.20 bitrate=   5.3kbits/s speed=0.0569x    frame=  138 fps=1.9 q=-0.0 size=       3kB time=00:00:04.28 bitrate=   5.2kbits/s speed=0.0576x    frame=  140 fps=1.8 q=-0.0 size=       3kB time=00:00:04.36 bitrate=   5.1kbits/s speed=0.0576x    frame=  142 fps=1.9 q=-0.0 size=       3kB time=00:00:04.44 bitrate=   5.0kbits/s speed=0.0582x    frame=  144 fps=1.9 q=-0.0 size=       3kB time=00:00:04.52 bitrate=   4.9kbits/s speed=0.0586x    frame=  146 fps=1.9 q=-0.0 size=       3kB time=00:00:04.60 bitrate=   4.9kbits/s speed=0.059x    frame=  147 fps=1.9 q=-0.0 size=       3kB time=00:00:04.64 bitrate=   4.8kbits/s speed=0.0589x    frame=  148 fps=1.9 q=-0.0 size=       3kB time=00:00:04.68 bitrate=   4.8kbits/s speed=0.059x    frame=  150 fps=1.9 q=-0.0 size=       3kB time=00:00:04.76 bitrate=   4.7kbits/s speed=0.0594x    frame=  151 fps=1.9 q=-0.0 size=       3kB time=00:00:04.80 bitrate=   4.6kbits/s speed=0.0594x    frame=  153 fps=1.9 q=-0.0 size=       3kB time=00:00:04.88 bitrate=   4.6kbits/s speed=0.0595x    frame=  155 fps=1.9 q=-0.0 size=    2719kB time=00:00:04.96 bitrate=4490.5kbits/s speed=0.0599x    frame=  157 fps=1.9 q=-0.0 size=    2719kB time=00:00:05.04 bitrate=4419.2kbits/s speed=0.0603x    frame=  158 fps=1.9 q=-0.0 size=    2719kB time=00:00:05.08 bitrate=4384.4kbits/s speed=0.0603x    frame=  160 fps=1.9 q=-0.0 size=    2719kB time=00:00:05.16 bitrate=4316.5kbits/s speed=0.0607x    frame=  161 fps=1.9 q=-0.0 size=    2719kB time=00:00:05.20 bitrate=4283.3kbits/s speed=0.0607x    frame=  162 fps=1.9 q=-0.0 size=    2719kB time=00:00:05.24 bitrate=4250.6kbits/s speed=0.0607x    frame=  164 fps=1.9 q=-0.0 size=    2719kB time=00:00:05.32 bitrate=4186.7kbits/s speed=0.0611x    frame=  166 fps=1.9 q=-0.0 size=    2719kB time=00:00:05.40 bitrate=4124.7kbits/s speed=0.0613x    frame=  168 fps=1.9 q=-0.0 size=    2719kB time=00:00:05.48 bitrate=4064.5kbits/s speed=0.0618x    frame=  170 fps=1.9 q=-0.0 size=    2719kB time=00:00:05.56 bitrate=4006.0kbits/s speed=0.062x    frame=  173 fps=1.9 q=-0.0 size=    2719kB time=00:00:05.68 bitrate=3921.4kbits/s speed=0.0626x    frame=  175 fps=1.9 q=-0.0 size=    2719kB time=00:00:05.76 bitrate=3866.9kbits/s speed=0.0627x    frame=  176 fps=1.9 q=-0.0 size=    2719kB time=00:00:05.80 bitrate=3840.2kbits/s speed=0.0627x    frame=  177 fps=1.9 q=-0.0 size=    2719kB time=00:00:05.84 bitrate=3813.9kbits/s speed=0.0624x    frame=  179 fps=1.9 q=-0.0 size=    2719kB time=00:00:05.92 bitrate=3762.4kbits/s speed=0.0628x    frame=  181 fps=1.9 q=-0.0 size=    2719kB time=00:00:06.00 bitrate=3712.3kbits/s speed=0.0628x    frame=  182 fps=1.9 q=-0.0 size=    2719kB time=00:00:06.04 bitrate=3687.7kbits/s speed=0.0626x    frame=  183 fps=1.9 q=-0.0 size=    2719kB time=00:00:06.08 bitrate=3663.4kbits/s speed=0.0625x    frame=  184 fps=1.9 q=-0.0 size=    2719kB time=00:00:06.12 bitrate=3639.5kbits/s speed=0.0619x    frame=  186 fps=1.9 q=-0.0 size=    2719kB time=00:00:06.20 bitrate=3592.5kbits/s speed=0.0619x    frame=  188 fps=1.9 q=-0.0 size=    2719kB time=00:00:06.28 bitrate=3546.8kbits/s speed=0.0624x    frame=  191 fps=1.9 q=-0.0 size=    2719kB time=00:00:06.40 bitrate=3480.3kbits/s speed=0.0631x    frame=  192 fps=1.9 q=-0.0 size=    2719kB time=00:00:06.44 bitrate=3458.7kbits/s speed=0.063x    frame=  194 fps=1.9 q=-0.0 size=    2719kB time=00:00:06.52 bitrate=3416.2kbits/s speed=0.063x    frame=  196 fps=1.9 q=-0.0 size=    2719kB time=00:00:06.60 bitrate=3374.8kbits/s speed=0.0634x    frame=  197 fps=1.9 q=-0.0 size=    2719kB time=00:00:06.64 bitrate=3354.5kbits/s speed=0.0634x    frame=  199 fps=1.9 q=-0.0 size=    2719kB time=00:00:06.72 bitrate=3314.6kbits/s speed=0.0628x    frame=  201 fps=1.9 q=-0.0 size=    2719kB time=00:00:06.80 bitrate=3275.6kbits/s speed=0.0631x    frame=  202 fps=1.9 q=-0.0 size=    2719kB time=00:00:06.84 bitrate=3256.4kbits/s speed=0.063x    frame=  203 fps=1.9 q=-0.0 size=    2719kB time=00:00:06.88 bitrate=3237.5kbits/s speed=0.063x    frame=  204 fps=1.9 q=-0.0 size=    2719kB time=00:00:06.92 bitrate=3218.8kbits/s speed=0.0629x    frame=  206 fps=1.9 q=-0.0 size=    2719kB time=00:00:07.00 bitrate=3182.0kbits/s speed=0.0629x    frame=  208 fps=1.8 q=-0.0 size=    2719kB time=00:00:07.08 bitrate=3146.1kbits/s speed=0.0629x    frame=  209 fps=1.8 q=-0.0 size=    2719kB time=00:00:07.12 bitrate=3128.4kbits/s speed=0.0629x    frame=  210 fps=1.8 q=-0.0 size=    2719kB time=00:00:07.16 bitrate=3110.9kbits/s speed=0.0625x    frame=  211 fps=1.8 q=-0.0 size=    2719kB time=00:00:07.20 bitrate=3093.6kbits/s speed=0.0625x    frame=  212 fps=1.8 q=-0.0 size=    2719kB time=00:00:07.24 bitrate=3076.5kbits/s speed=0.0623x    frame=  214 fps=1.8 q=-0.0 size=    2719kB time=00:00:07.32 bitrate=3042.9kbits/s speed=0.0624x    frame=  215 fps=1.8 q=-0.0 size=    2719kB time=00:00:07.36 bitrate=3026.4kbits/s speed=0.0617x    frame=  216 fps=1.8 q=-0.0 size=    2719kB time=00:00:07.40 bitrate=3010.0kbits/s speed=0.0617x    frame=  218 fps=1.8 q=-0.0 size=    2719kB time=00:00:07.48 bitrate=2977.8kbits/s speed=0.0616x    frame=  220 fps=1.8 q=-0.0 size=    2719kB time=00:00:07.56 bitrate=2946.3kbits/s speed=0.0617x    frame=  222 fps=1.8 q=-0.0 size=    2719kB time=00:00:07.64 bitrate=2915.5kbits/s speed=0.0618x    frame=  223 fps=1.8 q=-0.0 size=    2719kB time=00:00:07.68 bitrate=2900.3kbits/s speed=0.0616x    frame=  224 fps=1.8 q=-0.0 size=    2719kB time=00:00:07.72 bitrate=2885.3kbits/s speed=0.0616x    frame=  225 fps=1.8 q=-0.0 size=    2719kB time=00:00:07.76 bitrate=2870.4kbits/s speed=0.0606x    frame=  226 fps=1.7 q=-0.0 size=    2719kB time=00:00:07.80 bitrate=2855.7kbits/s speed=0.0603x    frame=  227 fps=1.7 q=-0.0 size=    2719kB time=00:00:07.84 bitrate=2841.1kbits/s speed=0.0585x    frame=  229 fps=1.7 q=-0.0 size=    2719kB time=00:00:07.92 bitrate=2812.4kbits/s speed=0.0589x    frame=  230 fps=1.7 q=-0.0 size=    2719kB time=00:00:07.96 bitrate=2798.3kbits/s speed=0.0586x    frame=  232 fps=1.7 q=-0.0 size=    2719kB time=00:00:08.04 bitrate=2770.5kbits/s speed=0.0589x    frame=  233 fps=1.7 q=-0.0 size=    2719kB time=00:00:08.08 bitrate=2756.7kbits/s speed=0.0589x    frame=  234 fps=1.7 q=-0.0 size=    2719kB time=00:00:08.12 bitrate=2743.2kbits/s speed=0.0585x    frame=  235 fps=1.7 q=-0.0 size=    2719kB time=00:00:08.16 bitrate=2729.7kbits/s speed=0.0585x    frame=  236 fps=1.7 q=-0.0 size=    2719kB time=00:00:08.20 bitrate=2716.4kbits/s speed=0.0583x    frame=  237 fps=1.7 q=-0.0 size=    2719kB time=00:00:08.24 bitrate=2703.2kbits/s speed=0.0584x    frame=  238 fps=1.7 q=-0.0 size=    2719kB time=00:00:08.28 bitrate=2690.2kbits/s speed=0.0583x    frame=  240 fps=1.7 q=-0.0 size=    2719kB time=00:00:08.36 bitrate=2664.4kbits/s speed=0.0584x    frame=  241 fps=1.7 q=-0.0 size=    2719kB time=00:00:08.40 bitrate=2651.7kbits/s speed=0.0584x    frame=  242 fps=1.7 q=-0.0 size=    2719kB time=00:00:08.44 bitrate=2639.2kbits/s speed=0.0583x    frame=  243 fps=1.7 q=-0.0 size=    2719kB time=00:00:08.48 bitrate=2626.7kbits/s speed=0.0584x    frame=  244 fps=1.7 q=-0.0 size=    2719kB time=00:00:08.52 bitrate=2614.4kbits/s speed=0.0584x    frame=  246 fps=1.7 q=-0.0 size=    2719kB time=00:00:08.60 bitrate=2590.1kbits/s speed=0.0586x    frame=  247 fps=1.7 q=-0.0 size=    2719kB time=00:00:08.64 bitrate=2578.1kbits/s speed=0.0584x    frame=  249 fps=1.7 q=-0.0 size=    2719kB time=00:00:08.72 bitrate=2554.4kbits/s speed=0.0586x    frame=  251 fps=1.7 q=-0.0 size=    2719kB time=00:00:08.80 bitrate=2531.2kbits/s speed=0.0589x    frame=  252 fps=1.7 q=-0.0 size=    2719kB time=00:00:08.84 bitrate=2519.8kbits/s speed=0.0588x    frame=  253 fps=1.7 q=-0.0 size=    2719kB time=00:00:08.88 bitrate=2508.4kbits/s speed=0.0587x    frame=  254 fps=1.7 q=-0.0 size=    2719kB time=00:00:08.92 bitrate=2497.2kbits/s speed=0.0587x    frame=  257 fps=1.7 q=-0.0 size=    2719kB time=00:00:09.04 bitrate=2464.0kbits/s speed=0.059x    frame=  259 fps=1.7 q=-0.0 size=    2719kB time=00:00:09.12 bitrate=2442.4kbits/s speed=0.0592x    frame=  260 fps=1.7 q=-0.0 size=    2719kB time=00:00:09.16 bitrate=2431.7kbits/s speed=0.0592x    frame=  261 fps=1.7 q=-0.0 size=    2719kB time=00:00:09.20 bitrate=2421.2kbits/s speed=0.0591x    frame=  262 fps=1.7 q=-0.0 size=    2719kB time=00:00:09.24 bitrate=2410.7kbits/s speed=0.059x    frame=  264 fps=1.7 q=-0.0 size=    2719kB time=00:00:09.32 bitrate=2390.0kbits/s speed=0.0591x    frame=  266 fps=1.7 q=-0.0 size=    2719kB time=00:00:09.40 bitrate=2369.7kbits/s speed=0.0593x    frame=  268 fps=1.7 q=-0.0 size=    2719kB time=00:00:09.48 bitrate=2349.7kbits/s speed=0.0594x    frame=  270 fps=1.7 q=-0.0 size=    2719kB time=00:00:09.56 bitrate=2330.0kbits/s speed=0.0595x    frame=  271 fps=1.7 q=-0.0 size=    2719kB time=00:00:09.60 bitrate=2320.3kbits/s speed=0.0594x    frame=  272 fps=1.6 q=-0.0 size=    2719kB time=00:00:09.64 bitrate=2310.7kbits/s speed=0.0578x    frame=  274 fps=1.6 q=-0.0 size=    2719kB time=00:00:09.72 bitrate=2291.7kbits/s speed=0.058x    frame=  276 fps=1.6 q=-0.0 size=    2719kB time=00:00:09.80 bitrate=2273.0kbits/s speed=0.058x    frame=  278 fps=1.6 q=-0.0 size=    2719kB time=00:00:09.88 bitrate=2254.6kbits/s speed=0.0582x    frame=  279 fps=1.6 q=-0.0 size=    5884kB time=00:00:09.92 bitrate=4858.8kbits/s speed=0.0576x    frame=  281 fps=1.6 q=-0.0 size=    5884kB time=00:00:10.00 bitrate=4820.0kbits/s speed=0.0576x    frame=  283 fps=1.6 q=-0.0 size=    5884kB time=00:00:10.08 bitrate=4781.7kbits/s speed=0.0577x    frame=  285 fps=1.6 q=-0.0 size=    5884kB time=00:00:10.16 bitrate=4744.1kbits/s speed=0.0579x    frame=  287 fps=1.6 q=-0.0 size=    5884kB time=00:00:10.24 bitrate=4707.0kbits/s speed=0.058x    frame=  289 fps=1.6 q=-0.0 size=    5884kB time=00:00:10.32 bitrate=4670.5kbits/s speed=0.058x    frame=  290 fps=1.6 q=-0.0 size=    5884kB time=00:00:10.36 bitrate=4652.5kbits/s speed=0.0578x    frame=  292 fps=1.6 q=-0.0 size=    5884kB time=00:00:10.44 bitrate=4616.8kbits/s speed=0.0579x    frame=  294 fps=1.6 q=-0.0 size=    5884kB time=00:00:10.52 bitrate=4581.7kbits/s speed=0.0581x    frame=  295 fps=1.6 q=-0.0 size=    5884kB time=00:00:10.56 bitrate=4564.4kbits/s speed=0.058x    frame=  297 fps=1.6 q=-0.0 size=    5884kB time=00:00:10.64 bitrate=4530.1kbits/s speed=0.0583x    frame=  299 fps=1.6 q=-0.0 size=    5884kB time=00:00:10.72 bitrate=4496.3kbits/s speed=0.0583x    frame=  301 fps=1.6 q=-0.0 size=    5884kB time=00:00:10.80 bitrate=4463.0kbits/s speed=0.0585x    frame=  304 fps=1.6 q=-0.0 size=    5884kB time=00:00:10.92 bitrate=4413.9kbits/s speed=0.0587x    frame=  306 fps=1.6 q=-0.0 size=    5884kB time=00:00:11.00 bitrate=4381.8kbits/s speed=0.0589x    frame=  308 fps=1.6 q=-0.0 size=    5884kB time=00:00:11.08 bitrate=4350.2kbits/s speed=0.059x    frame=  311 fps=1.6 q=-0.0 size=    5884kB time=00:00:11.20 bitrate=4303.6kbits/s speed=0.0592x    frame=  313 fps=1.6 q=-0.0 size=    5884kB time=00:00:11.28 bitrate=4273.1kbits/s speed=0.0594x    frame=  316 fps=1.7 q=-0.0 size=    5884kB time=00:00:11.40 bitrate=4228.1kbits/s speed=0.0598x    frame=  319 fps=1.7 q=-0.0 size=    5884kB time=00:00:11.52 bitrate=4184.1kbits/s speed=0.0602x    frame=  323 fps=1.7 q=-0.0 size=    5884kB time=00:00:11.68 bitrate=4126.7kbits/s speed=0.0609x    frame=  326 fps=1.7 q=-0.0 size=    5884kB time=00:00:11.80 bitrate=4084.8kbits/s speed=0.0612x    frame=  327 fps=1.7 q=-0.0 size=    5884kB time=00:00:11.84 bitrate=4071.0kbits/s speed=0.0611x    frame=  329 fps=1.7 q=-0.0 size=    5884kB time=00:00:11.92 bitrate=4043.7kbits/s speed=0.0613x    frame=  332 fps=1.7 q=-0.0 size=    5884kB time=00:00:12.04 bitrate=4003.4kbits/s speed=0.0616x    frame=  334 fps=1.7 q=-0.0 size=    5884kB time=00:00:12.12 bitrate=3976.9kbits/s speed=0.0618x    frame=  335 fps=1.7 q=-0.0 size=    5884kB time=00:00:12.16 bitrate=3963.9kbits/s speed=0.0619x    frame=  336 fps=1.7 q=-0.0 size=    5884kB time=00:00:12.20 bitrate=3950.9kbits/s speed=0.0619x    frame=  340 fps=1.7 q=-0.0 size=    5884kB time=00:00:12.36 bitrate=3899.7kbits/s speed=0.0625x    frame=  342 fps=1.7 q=-0.0 size=    5884kB time=00:00:12.44 bitrate=3874.6kbits/s speed=0.0627x    frame=  345 fps=1.7 q=-0.0 size=    5884kB time=00:00:12.56 bitrate=3837.6kbits/s speed=0.0631x    frame=  347 fps=1.7 q=-0.0 size=    5884kB time=00:00:12.64 bitrate=3813.3kbits/s speed=0.0631x    frame=  348 fps=1.7 q=-0.0 size=    5884kB time=00:00:12.68 bitrate=3801.3kbits/s speed=0.0631x    frame=  352 fps=1.7 q=-0.0 size=    5884kB time=00:00:12.84 bitrate=3754.0kbits/s speed=0.0637x    frame=  355 fps=1.8 q=-0.0 size=    5884kB time=00:00:12.96 bitrate=3719.2kbits/s speed=0.0639x    frame=  357 fps=1.8 q=-0.0 size=    5884kB time=00:00:13.04 bitrate=3696.4kbits/s speed=0.0641x    frame=  358 fps=1.8 q=-0.0 size=    5884kB time=00:00:13.08 bitrate=3685.1kbits/s speed=0.0641x    frame=  361 fps=1.8 q=-0.0 size=    5884kB time=00:00:13.20 bitrate=3651.6kbits/s speed=0.0645x    frame=  362 fps=1.8 q=-0.0 size=    5884kB time=00:00:13.24 bitrate=3640.5kbits/s speed=0.0644x    frame=  364 fps=1.8 q=-0.0 size=    5884kB time=00:00:13.32 bitrate=3618.7kbits/s speed=0.0646x    frame=  366 fps=1.8 q=-0.0 size=    5884kB time=00:00:13.40 bitrate=3597.1kbits/s speed=0.0646x    frame=  368 fps=1.8 q=-0.0 size=    5884kB time=00:00:13.48 bitrate=3575.7kbits/s speed=0.0647x    frame=  369 fps=1.8 q=-0.0 size=    5884kB time=00:00:13.52 bitrate=3565.2kbits/s speed=0.0647x    frame=  370 fps=1.8 q=-0.0 size=    5884kB time=00:00:13.56 bitrate=3554.6kbits/s speed=0.0646x    frame=  372 fps=1.8 q=-0.0 size=    5884kB time=00:00:13.64 bitrate=3533.8kbits/s speed=0.0647x    frame=  374 fps=1.8 q=-0.0 size=    5884kB time=00:00:13.72 bitrate=3513.2kbits/s speed=0.0648x    frame=  375 fps=1.8 q=-0.0 size=    5884kB time=00:00:13.76 bitrate=3503.0kbits/s speed=0.0647x    frame=  376 fps=1.8 q=-0.0 size=    5884kB time=00:00:13.80 bitrate=3492.8kbits/s speed=0.0648x    frame=  378 fps=1.8 q=-0.0 size=    5884kB time=00:00:13.88 bitrate=3472.7kbits/s speed=0.0649x    frame=  381 fps=1.8 q=-0.0 size=    5884kB time=00:00:14.00 bitrate=3442.9kbits/s speed=0.0652x    frame=  384 fps=1.8 q=-0.0 size=    5884kB time=00:00:14.12 bitrate=3413.7kbits/s speed=0.0654x    frame=  385 fps=1.8 q=-0.0 size=    5884kB time=00:00:14.16 bitrate=3404.0kbits/s speed=0.0654x    frame=  387 fps=1.8 q=-0.0 size=    5884kB time=00:00:14.24 bitrate=3384.9kbits/s speed=0.0655x    frame=  390 fps=1.8 q=-0.0 size=    5884kB time=00:00:14.36 bitrate=3356.6kbits/s speed=0.0656x    frame=  392 fps=1.8 q=-0.0 size=    5884kB time=00:00:14.44 bitrate=3338.0kbits/s speed=0.0654x    frame=  393 fps=1.8 q=-0.0 size=    5884kB time=00:00:14.48 bitrate=3328.8kbits/s speed=0.0654x    frame=  395 fps=1.8 q=-0.0 size=    5884kB time=00:00:14.56 bitrate=3310.5kbits/s speed=0.0656x    frame=  398 fps=1.8 q=-0.0 size=    5884kB time=00:00:14.68 bitrate=3283.5kbits/s speed=0.066x    frame=  400 fps=1.8 q=-0.0 size=    5884kB time=00:00:14.76 bitrate=3265.7kbits/s speed=0.0658x    frame=  402 fps=1.8 q=-0.0 size=    5884kB time=00:00:14.84 bitrate=3248.1kbits/s speed=0.0657x    frame=  403 fps=1.8 q=-0.0 size=    5884kB time=00:00:14.88 bitrate=3239.3kbits/s speed=0.0658x    frame=  404 fps=1.8 q=-0.0 size=    5884kB time=00:00:14.92 bitrate=3230.6kbits/s speed=0.0654x    frame=  406 fps=1.8 q=-0.0 size=    7574kB time=00:00:15.00 bitrate=4135.9kbits/s speed=0.0656x    frame=  408 fps=1.8 q=-0.0 size=    7574kB time=00:00:15.08 bitrate=4113.9kbits/s speed=0.0657x    frame=  410 fps=1.8 q=-0.0 size=    7574kB time=00:00:15.16 bitrate=4092.2kbits/s speed=0.0659x    frame=  411 fps=1.8 q=-0.0 size=    7574kB time=00:00:15.20 bitrate=4081.4kbits/s speed=0.0659x    frame=  413 fps=1.8 q=-0.0 size=    7574kB time=00:00:15.28 bitrate=4060.1kbits/s speed=0.066x    frame=  415 fps=1.8 q=-0.0 size=    7574kB time=00:00:15.36 bitrate=4038.9kbits/s speed=0.066x    frame=  416 fps=1.8 q=-0.0 size=    7574kB time=00:00:15.40 bitrate=4028.4kbits/s speed=0.0659x    frame=  417 fps=1.8 q=-0.0 size=    7574kB time=00:00:15.44 bitrate=4018.0kbits/s speed=0.0657x    frame=  419 fps=1.8 q=-0.0 size=    7574kB time=00:00:15.52 bitrate=3997.3kbits/s speed=0.0657x    frame=  421 fps=1.8 q=-0.0 size=    7574kB time=00:00:15.60 bitrate=3976.8kbits/s speed=0.0655x    frame=  422 fps=1.8 q=-0.0 size=    7574kB time=00:00:15.64 bitrate=3966.6kbits/s speed=0.0649x    frame=  424 fps=1.8 q=-0.0 size=    7574kB time=00:00:15.72 bitrate=3946.4kbits/s speed=0.065x    frame=  426 fps=1.8 q=-0.0 size=    7574kB time=00:00:15.80 bitrate=3926.5kbits/s speed=0.0652x    frame=  429 fps=1.8 q=-0.0 size=    7574kB time=00:00:15.92 bitrate=3896.9kbits/s speed=0.0653x    frame=  431 fps=1.8 q=-0.0 size=    7574kB time=00:00:16.00 bitrate=3877.4kbits/s speed=0.0653x    frame=  432 fps=1.8 q=-0.0 size=    7574kB time=00:00:16.04 bitrate=3867.7kbits/s speed=0.0653x    frame=  433 fps=1.8 q=-0.0 size=    7574kB time=00:00:16.08 bitrate=3858.1kbits/s speed=0.0651x    frame=  435 fps=1.8 q=-0.0 size=    7574kB time=00:00:16.16 bitrate=3839.0kbits/s speed=0.0651x    frame=  437 fps=1.8 q=-0.0 size=    7574kB time=00:00:16.24 bitrate=3820.1kbits/s speed=0.0651x    frame=  439 fps=1.8 q=-0.0 size=    7574kB time=00:00:16.32 bitrate=3801.4kbits/s speed=0.0651x    frame=  441 fps=1.8 q=-0.0 size=    7574kB time=00:00:16.40 bitrate=3782.8kbits/s speed=0.0652x    frame=  443 fps=1.8 q=-0.0 size=    7574kB time=00:00:16.48 bitrate=3764.5kbits/s speed=0.0653x    frame=  444 fps=1.8 q=-0.0 size=    7574kB time=00:00:16.52 bitrate=3755.3kbits/s speed=0.0652x    frame=  447 fps=1.8 q=-0.0 size=    7574kB time=00:00:16.64 bitrate=3728.3kbits/s speed=0.0653x    frame=  449 fps=1.8 q=-0.0 size=    7574kB time=00:00:16.72 bitrate=3710.4kbits/s speed=0.0653x    frame=  451 fps=1.8 q=-0.0 size=    7574kB time=00:00:16.80 bitrate=3692.8kbits/s speed=0.0654x    frame=  452 fps=1.8 q=-0.0 size=    7574kB time=00:00:16.84 bitrate=3684.0kbits/s speed=0.0655x    frame=  453 fps=1.8 q=-0.0 size=    7574kB time=00:00:16.88 bitrate=3675.3kbits/s speed=0.0654x    frame=  455 fps=1.8 q=-0.0 size=    7574kB time=00:00:16.96 bitrate=3657.9kbits/s speed=0.0654x    frame=  457 fps=1.8 q=-0.0 size=    7574kB time=00:00:17.04 bitrate=3640.8kbits/s speed=0.0655x    frame=  458 fps=1.8 q=-0.0 size=    7574kB time=00:00:17.08 bitrate=3632.2kbits/s speed=0.0655x    frame=  460 fps=1.8 q=-0.0 size=    7574kB time=00:00:17.16 bitrate=3615.3kbits/s speed=0.0654x    frame=  462 fps=1.8 q=-0.0 size=    7574kB time=00:00:17.24 bitrate=3598.5kbits/s speed=0.0656x    frame=  463 fps=1.8 q=-0.0 size=    7574kB time=00:00:17.28 bitrate=3590.2kbits/s speed=0.0655x    frame=  464 fps=1.8 q=-0.0 size=    7574kB time=00:00:17.32 bitrate=3581.9kbits/s speed=0.0656x    frame=  465 fps=1.8 q=-0.0 size=    7574kB time=00:00:17.36 bitrate=3573.6kbits/s speed=0.0655x    frame=  466 fps=1.8 q=-0.0 size=    7574kB time=00:00:17.40 bitrate=3565.4kbits/s speed=0.0655x    frame=  467 fps=1.8 q=-0.0 size=    7574kB time=00:00:17.44 bitrate=3557.3kbits/s speed=0.0654x    frame=  468 fps=1.7 q=-0.0 size=    7574kB time=00:00:17.48 bitrate=3549.1kbits/s speed=0.0642x    frame=  469 fps=1.7 q=-0.0 size=    7574kB time=00:00:17.52 bitrate=3541.0kbits/s speed=0.064x    frame=  470 fps=1.7 q=-0.0 size=    7574kB time=00:00:17.56 bitrate=3532.9kbits/s speed=0.0639x    frame=  471 fps=1.7 q=-0.0 size=    7574kB time=00:00:17.60 bitrate=3524.9kbits/s speed=0.0638x    frame=  472 fps=1.7 q=-0.0 size=    7574kB time=00:00:17.64 bitrate=3516.9kbits/s speed=0.0636x    frame=  474 fps=1.7 q=-0.0 size=    7574kB time=00:00:17.72 bitrate=3501.1kbits/s speed=0.0637x    frame=  475 fps=1.7 q=-0.0 size=    7574kB time=00:00:17.76 bitrate=3493.2kbits/s speed=0.0636x    frame=  476 fps=1.7 q=-0.0 size=    7574kB time=00:00:17.80 bitrate=3485.3kbits/s speed=0.0636x    frame=  477 fps=1.7 q=-0.0 size=    7574kB time=00:00:17.84 bitrate=3477.5kbits/s speed=0.0635x    frame=  478 fps=1.7 q=-0.0 size=    7574kB time=00:00:17.88 bitrate=3469.7kbits/s speed=0.0635x    frame=  479 fps=1.7 q=-0.0 size=    7574kB time=00:00:17.92 bitrate=3462.0kbits/s speed=0.0634x    frame=  480 fps=1.7 q=-0.0 size=    7574kB time=00:00:17.96 bitrate=3454.3kbits/s speed=0.0632x    frame=  482 fps=1.7 q=-0.0 size=    7574kB time=00:00:18.04 bitrate=3439.0kbits/s speed=0.0632x    frame=  483 fps=1.7 q=-0.0 size=    7574kB time=00:00:18.08 bitrate=3431.3kbits/s speed=0.0629x    frame=  484 fps=1.7 q=-0.0 size=    7574kB time=00:00:18.12 bitrate=3423.8kbits/s speed=0.0628x    frame=  485 fps=1.7 q=-0.0 size=    7574kB time=00:00:18.16 bitrate=3416.2kbits/s speed=0.0625x    frame=  486 fps=1.7 q=-0.0 size=    7574kB time=00:00:18.20 bitrate=3408.7kbits/s speed=0.0618x    frame=  487 fps=1.6 q=-0.0 size=    7574kB time=00:00:18.24 bitrate=3401.2kbits/s speed=0.0614x    frame=  489 fps=1.6 q=-0.0 size=    7574kB time=00:00:18.32 bitrate=3386.4kbits/s speed=0.0614x    frame=  491 fps=1.6 q=-0.0 size=    7574kB time=00:00:18.40 bitrate=3371.7kbits/s speed=0.0614x    frame=  493 fps=1.6 q=-0.0 size=    7574kB time=00:00:18.48 bitrate=3357.1kbits/s speed=0.0614x    frame=  494 fps=1.6 q=-0.0 size=    7574kB time=00:00:18.52 bitrate=3349.8kbits/s speed=0.0613x    frame=  495 fps=1.6 q=-0.0 size=    7574kB time=00:00:18.56 bitrate=3342.6kbits/s speed=0.0613x    frame=  496 fps=1.6 q=-0.0 size=    7574kB time=00:00:18.60 bitrate=3335.4kbits/s speed=0.0613x    frame=  497 fps=1.6 q=-0.0 size=    7574kB time=00:00:18.64 bitrate=3328.3kbits/s speed=0.0612x    frame=  499 fps=1.6 q=-0.0 size=    7574kB time=00:00:18.72 bitrate=3314.0kbits/s speed=0.0613x    frame=  500 fps=1.6 q=-0.0 size=    7574kB time=00:00:18.76 bitrate=3307.0kbits/s speed=0.0612x    frame=  502 fps=1.6 q=-0.0 size=    7574kB time=00:00:18.84 bitrate=3292.9kbits/s speed=0.0613x    frame=  503 fps=1.6 q=-0.0 size=    7574kB time=00:00:18.88 bitrate=3286.0kbits/s speed=0.0613x    frame=  505 fps=1.6 q=-0.0 size=    7574kB time=00:00:18.96 bitrate=3272.1kbits/s speed=0.0614x    frame=  506 fps=1.6 q=-0.0 size=    7574kB time=00:00:19.00 bitrate=3265.2kbits/s speed=0.0613x    frame=  508 fps=1.6 q=-0.0 size=    7574kB time=00:00:19.08 bitrate=3251.5kbits/s speed=0.0612x    frame=  511 fps=1.6 q=-0.0 size=    7574kB time=00:00:19.20 bitrate=3231.2kbits/s speed=0.0615x    frame=  514 fps=1.6 q=-0.0 size=    7574kB time=00:00:19.32 bitrate=3211.1kbits/s speed=0.0617x    frame=  518 fps=1.7 q=-0.0 size=    7574kB time=00:00:19.48 bitrate=3184.7kbits/s speed=0.0621x    frame=  521 fps=1.7 q=-0.0 size=    7574kB time=00:00:19.60 bitrate=3165.3kbits/s speed=0.0622x    frame=  524 fps=1.7 q=-0.0 size=    7574kB time=00:00:19.72 bitrate=3146.0kbits/s speed=0.0624x    frame=  526 fps=1.7 q=-0.0 size=    7574kB time=00:00:19.80 bitrate=3133.3kbits/s speed=0.0624x    frame=  528 fps=1.7 q=-0.0 size=   10672kB time=00:00:19.88 bitrate=4397.6kbits/s speed=0.0623x    frame=  530 fps=1.7 q=-0.0 size=   10672kB time=00:00:19.96 bitrate=4380.0kbits/s speed=0.0624x    frame=  532 fps=1.7 q=-0.0 size=   10672kB time=00:00:20.04 bitrate=4362.5kbits/s speed=0.0625x    frame=  534 fps=1.7 q=-0.0 size=   10672kB time=00:00:20.12 bitrate=4345.1kbits/s speed=0.0626x    frame=  535 fps=1.7 q=-0.0 size=   10672kB time=00:00:20.16 bitrate=4336.5kbits/s speed=0.0626x    frame=  537 fps=1.7 q=-0.0 size=   10672kB time=00:00:20.24 bitrate=4319.4kbits/s speed=0.0626x    frame=  540 fps=1.7 q=-0.0 size=   10672kB time=00:00:20.36 bitrate=4293.9kbits/s speed=0.0627x    frame=  542 fps=1.7 q=-0.0 size=   10672kB time=00:00:20.44 bitrate=4277.1kbits/s speed=0.0628x    frame=  543 fps=1.7 q=-0.0 size=   10672kB time=00:00:20.48 bitrate=4268.8kbits/s speed=0.0628x    frame=  545 fps=1.7 q=-0.0 size=   10672kB time=00:00:20.56 bitrate=4252.2kbits/s speed=0.0629x    frame=  547 fps=1.7 q=-0.0 size=   10672kB time=00:00:20.64 bitrate=4235.7kbits/s speed=0.063x    frame=  548 fps=1.7 q=-0.0 size=   10672kB time=00:00:20.68 bitrate=4227.5kbits/s speed=0.0629x    frame=  550 fps=1.7 q=-0.0 size=   10672kB time=00:00:20.76 bitrate=4211.2kbits/s speed=0.063x    frame=  551 fps=1.7 q=-0.0 size=   10672kB time=00:00:20.80 bitrate=4203.1kbits/s speed=0.063x    frame=  553 fps=1.7 q=-0.0 size=   10672kB time=00:00:20.88 bitrate=4187.0kbits/s speed=0.0631x    frame=  554 fps=1.7 q=-0.0 size=   10672kB time=00:00:20.92 bitrate=4179.0kbits/s speed=0.063x    frame=  555 fps=1.7 q=-0.0 size=   10672kB time=00:00:20.96 bitrate=4171.0kbits/s speed=0.0629x    frame=  556 fps=1.7 q=-0.0 size=   10672kB time=00:00:21.00 bitrate=4163.1kbits/s speed=0.0625x    frame=  557 fps=1.6 q=-0.0 size=   10672kB time=00:00:21.04 bitrate=4155.2kbits/s speed=0.0623x    frame=  559 fps=1.7 q=-0.0 size=   10672kB time=00:00:21.12 bitrate=4139.4kbits/s speed=0.0624x    frame=  560 fps=1.7 q=-0.0 size=   10672kB time=00:00:21.16 bitrate=4131.6kbits/s speed=0.0624x    frame=  562 fps=1.7 q=-0.0 size=   10672kB time=00:00:21.24 bitrate=4116.0kbits/s speed=0.0625x    frame=  565 fps=1.7 q=-0.0 size=   10672kB time=00:00:21.36 bitrate=4092.9kbits/s speed=0.0627x    frame=  568 fps=1.7 q=-0.0 size=   10672kB time=00:00:21.48 bitrate=4070.0kbits/s speed=0.0628x    frame=  570 fps=1.6 q=-0.0 size=   10959kB time=00:00:21.56 bitrate=4164.0kbits/s speed=0.0618x    frame=  573 fps=1.6 q=-0.0 size=   10959kB time=00:00:21.68 bitrate=4141.0kbits/s speed=0.0621x    frame=  574 fps=1.6 q=-0.0 size=   10959kB time=00:00:21.72 bitrate=4133.3kbits/s speed=0.0619x    frame=  575 fps=1.6 q=-0.0 size=   10959kB time=00:00:21.76 bitrate=4125.7kbits/s speed=0.0616x    frame=  577 fps=1.6 q=-0.0 size=   10959kB time=00:00:21.84 bitrate=4110.6kbits/s speed=0.0616x    frame=  579 fps=1.6 q=-0.0 size=   10959kB time=00:00:21.92 bitrate=4095.6kbits/s speed=0.0616x    frame=  581 fps=1.6 q=-0.0 size=   10959kB time=00:00:22.00 bitrate=4080.7kbits/s speed=0.0618x    frame=  584 fps=1.6 q=-0.0 size=   10959kB time=00:00:22.12 bitrate=4058.6kbits/s speed=0.062x    frame=  586 fps=1.6 q=-0.0 size=   10959kB time=00:00:22.20 bitrate=4044.0kbits/s speed=0.0613x    frame=  589 fps=1.6 q=-0.0 size=   10959kB time=00:00:22.32 bitrate=4022.2kbits/s speed=0.0615x    frame=  590 fps=1.6 q=-0.0 size=   10959kB time=00:00:22.36 bitrate=4015.0kbits/s speed=0.0612x    frame=  591 fps=1.6 q=-0.0 size=   10959kB time=00:00:22.40 bitrate=4007.9kbits/s speed=0.0613x    frame=  592 fps=1.6 q=-0.0 size=   10959kB time=00:00:22.44 bitrate=4000.7kbits/s speed=0.0612x    frame=  594 fps=1.6 q=-0.0 size=   10959kB time=00:00:22.52 bitrate=3986.5kbits/s speed=0.0613x    frame=  596 fps=1.6 q=-0.0 size=   10959kB time=00:00:22.60 bitrate=3972.4kbits/s speed=0.0614x    frame=  599 fps=1.6 q=-0.0 size=   10959kB time=00:00:22.72 bitrate=3951.4kbits/s speed=0.0617x    frame=  601 fps=1.6 q=-0.0 size=   10959kB time=00:00:22.80 bitrate=3937.5kbits/s speed=0.0617x    frame=  603 fps=1.6 q=-0.0 size=   10959kB time=00:00:22.88 bitrate=3923.8kbits/s speed=0.0618x    frame=  606 fps=1.6 q=-0.0 size=   10959kB time=00:00:23.00 bitrate=3903.3kbits/s speed=0.062x    frame=  607 fps=1.6 q=-0.0 size=   10959kB time=00:00:23.04 bitrate=3896.5kbits/s speed=0.0619x    frame=  611 fps=1.6 q=-0.0 size=   10959kB time=00:00:23.20 bitrate=3869.7kbits/s speed=0.0622x    frame=  613 fps=1.6 q=-0.0 size=   10959kB time=00:00:23.28 bitrate=3856.4kbits/s speed=0.0622x    frame=  617 fps=1.6 q=-0.0 size=   10959kB time=00:00:23.44 bitrate=3830.0kbits/s speed=0.0625x    frame=  618 fps=1.6 q=-0.0 size=   10959kB time=00:00:23.48 bitrate=3823.5kbits/s speed=0.0626x    frame=  620 fps=1.6 q=-0.0 size=   10959kB time=00:00:23.56 bitrate=3810.5kbits/s speed=0.0626x    frame=  621 fps=1.6 q=-0.0 size=   10959kB time=00:00:23.60 bitrate=3804.1kbits/s speed=0.0627x    frame=  622 fps=1.6 q=-0.0 size=   10959kB time=00:00:23.64 bitrate=3797.6kbits/s speed=0.0627x    frame=  624 fps=1.6 q=-0.0 size=   10959kB time=00:00:23.72 bitrate=3784.8kbits/s speed=0.0627x    frame=  626 fps=1.7 q=-0.0 size=   10959kB time=00:00:23.80 bitrate=3772.1kbits/s speed=0.0627x    frame=  629 fps=1.7 q=-0.0 size=   10959kB time=00:00:23.92 bitrate=3753.2kbits/s speed=0.063x    frame=  632 fps=1.7 q=-0.0 size=   10959kB time=00:00:24.04 bitrate=3734.5kbits/s speed=0.0632x    frame=  635 fps=1.7 q=-0.0 size=   10959kB time=00:00:24.16 bitrate=3715.9kbits/s speed=0.0634x    frame=  638 fps=1.7 q=-0.0 size=   10959kB time=00:00:24.28 bitrate=3697.5kbits/s speed=0.0636x    frame=  640 fps=1.7 q=-0.0 size=   10959kB time=00:00:24.36 bitrate=3685.4kbits/s speed=0.0637x    frame=  642 fps=1.7 q=-0.0 size=   10959kB time=00:00:24.44 bitrate=3673.3kbits/s speed=0.0638x    frame=  644 fps=1.7 q=-0.0 size=   10959kB time=00:00:24.52 bitrate=3661.4kbits/s speed=0.0638x    frame=  645 fps=1.7 q=-0.0 size=   10959kB time=00:00:24.56 bitrate=3655.4kbits/s speed=0.0638x    frame=  647 fps=1.7 q=-0.0 size=   10959kB time=00:00:24.64 bitrate=3643.5kbits/s speed=0.0639x    frame=  649 fps=1.7 q=-0.0 size=   10959kB time=00:00:24.72 bitrate=3631.7kbits/s speed=0.064x    frame=  651 fps=1.7 q=-0.0 size=   10959kB time=00:00:24.80 bitrate=3620.0kbits/s speed=0.0641x    frame=  656 fps=1.7 q=-0.0 size=   10959kB time=00:00:25.00 bitrate=3591.1kbits/s speed=0.0645x    frame=  657 fps=1.7 q=-0.0 size=   10959kB time=00:00:25.04 bitrate=3585.3kbits/s speed=0.0645x    frame=  659 fps=1.7 q=-0.0 size=   10959kB time=00:00:25.12 bitrate=3573.9kbits/s speed=0.0645x    frame=  661 fps=1.7 q=-0.0 size=   10959kB time=00:00:25.20 bitrate=3562.6kbits/s speed=0.0646x    frame=  663 fps=1.7 q=-0.0 size=   10959kB time=00:00:25.28 bitrate=3551.3kbits/s speed=0.0647x    frame=  664 fps=1.7 q=-0.0 size=   10959kB time=00:00:25.32 bitrate=3545.7kbits/s speed=0.0646x    frame=  666 fps=1.7 q=-0.0 size=   10959kB time=00:00:25.40 bitrate=3534.5kbits/s speed=0.0648x    frame=  669 fps=1.7 q=-0.0 size=   10959kB time=00:00:25.52 bitrate=3517.9kbits/s speed=0.065x    frame=  671 fps=1.7 q=-0.0 size=   10959kB time=00:00:25.60 bitrate=3506.9kbits/s speed=0.0651x    frame=  673 fps=1.7 q=-0.0 size=   10959kB time=00:00:25.68 bitrate=3496.0kbits/s speed=0.0651x    frame=  674 fps=1.7 q=-0.0 size=   10959kB time=00:00:25.72 bitrate=3490.5kbits/s speed=0.0651x    frame=  675 fps=1.7 q=-0.0 size=   10959kB time=00:00:25.76 bitrate=3485.1kbits/s speed=0.0651x    frame=  678 fps=1.7 q=-0.0 size=   10959kB time=00:00:25.88 bitrate=3469.0kbits/s speed=0.0653x    frame=  679 fps=1.7 q=-0.0 size=   10959kB time=00:00:25.92 bitrate=3463.6kbits/s speed=0.0653x    frame=  682 fps=1.7 q=-0.0 size=   10959kB time=00:00:26.04 bitrate=3447.6kbits/s speed=0.0654x    frame=  684 fps=1.7 q=-0.0 size=   10959kB time=00:00:26.12 bitrate=3437.1kbits/s speed=0.0655x    frame=  687 fps=1.7 q=-0.0 size=   10959kB time=00:00:26.24 bitrate=3421.4kbits/s speed=0.0655x    frame=  688 fps=1.7 q=-0.0 size=   10959kB time=00:00:26.28 bitrate=3416.2kbits/s speed=0.0654x    frame=  690 fps=1.7 q=-0.0 size=   10959kB time=00:00:26.36 bitrate=3405.8kbits/s speed=0.0655x    frame=  692 fps=1.7 q=-0.0 size=   10959kB time=00:00:26.44 bitrate=3395.5kbits/s speed=0.0656x    frame=  693 fps=1.7 q=-0.0 size=   10959kB time=00:00:26.48 bitrate=3390.4kbits/s speed=0.0656x    frame=  694 fps=1.7 q=-0.0 size=   10959kB time=00:00:26.52 bitrate=3385.2kbits/s speed=0.0656x    frame=  695 fps=1.7 q=-0.0 size=   10959kB time=00:00:26.56 bitrate=3380.1kbits/s speed=0.0654x    frame=  697 fps=1.7 q=-0.0 size=   11498kB time=00:00:26.64 bitrate=3535.5kbits/s speed=0.0655x    frame=  698 fps=1.7 q=-0.0 size=   11498kB time=00:00:26.68 bitrate=3530.2kbits/s speed=0.0654x    frame=  700 fps=1.7 q=-0.0 size=   11498kB time=00:00:26.76 bitrate=3519.7kbits/s speed=0.0654x    frame=  701 fps=1.7 q=-0.0 size=   11498kB time=00:00:26.80 bitrate=3514.4kbits/s speed=0.0654x    frame=  702 fps=1.7 q=-0.0 size=   11498kB time=00:00:26.84 bitrate=3509.2kbits/s speed=0.0653x    frame=  703 fps=1.7 q=-0.0 size=   11498kB time=00:00:26.88 bitrate=3503.9kbits/s speed=0.0652x    frame=  705 fps=1.7 q=-0.0 size=   11498kB time=00:00:26.96 bitrate=3493.5kbits/s speed=0.0648x    frame=  706 fps=1.7 q=-0.0 size=   11498kB time=00:00:27.00 bitrate=3488.4kbits/s speed=0.0648x    frame=  708 fps=1.7 q=-0.0 size=   11498kB time=00:00:27.08 bitrate=3478.1kbits/s speed=0.0646x    frame=  710 fps=1.7 q=-0.0 size=   11498kB time=00:00:27.16 bitrate=3467.8kbits/s speed=0.0646x    frame=  712 fps=1.7 q=-0.0 size=   11498kB time=00:00:27.24 bitrate=3457.6kbits/s speed=0.0645x    frame=  713 fps=1.7 q=-0.0 size=   11498kB time=00:00:27.28 bitrate=3452.6kbits/s speed=0.0645x    frame=  715 fps=1.7 q=-0.0 size=   11498kB time=00:00:27.36 bitrate=3442.5kbits/s speed=0.0645x    frame=  717 fps=1.7 q=-0.0 size=   11498kB time=00:00:27.44 bitrate=3432.4kbits/s speed=0.0645x    frame=  718 fps=1.7 q=-0.0 size=   11498kB time=00:00:27.48 bitrate=3427.4kbits/s speed=0.0644x    frame=  720 fps=1.7 q=-0.0 size=   11498kB time=00:00:27.56 bitrate=3417.5kbits/s speed=0.0644x    frame=  722 fps=1.7 q=-0.0 size=   11498kB time=00:00:27.64 bitrate=3407.6kbits/s speed=0.0644x    frame=  723 fps=1.7 q=-0.0 size=   11498kB time=00:00:27.68 bitrate=3402.7kbits/s speed=0.0644x    frame=  725 fps=1.7 q=-0.0 size=   11498kB time=00:00:27.76 bitrate=3392.9kbits/s speed=0.0645x    frame=  727 fps=1.7 q=-0.0 size=   11498kB time=00:00:27.84 bitrate=3383.1kbits/s speed=0.0645x    frame=  729 fps=1.7 q=-0.0 size=   11498kB time=00:00:27.92 bitrate=3373.4kbits/s speed=0.0644x    frame=  731 fps=1.7 q=-0.0 size=   11498kB time=00:00:28.00 bitrate=3363.8kbits/s speed=0.0645x    frame=  732 fps=1.7 q=-0.0 size=   11498kB time=00:00:28.04 bitrate=3359.0kbits/s speed=0.0644x    frame=  734 fps=1.7 q=-0.0 size=   11498kB time=00:00:28.12 bitrate=3349.4kbits/s speed=0.0645x    frame=  735 fps=1.7 q=-0.0 size=   11498kB time=00:00:28.16 bitrate=3344.7kbits/s speed=0.0644x    frame=  737 fps=1.7 q=-0.0 size=   11498kB time=00:00:28.24 bitrate=3335.2kbits/s speed=0.0644x    frame=  741 fps=1.7 q=-0.0 size=   11498kB time=00:00:28.40 bitrate=3316.4kbits/s speed=0.0647x    frame=  742 fps=1.7 q=-0.0 size=   11498kB time=00:00:28.44 bitrate=3311.7kbits/s speed=0.0646x    frame=  744 fps=1.7 q=-0.0 size=   11498kB time=00:00:28.52 bitrate=3302.5kbits/s speed=0.0647x    frame=  747 fps=1.7 q=-0.0 size=   11498kB time=00:00:28.64 bitrate=3288.6kbits/s speed=0.0648x    frame=  749 fps=1.7 q=-0.0 size=   11498kB time=00:00:28.72 bitrate=3279.5kbits/s speed=0.0648x    frame=  751 fps=1.7 q=-0.0 size=   11498kB time=00:00:28.80 bitrate=3270.4kbits/s speed=0.0649x    frame=  753 fps=1.7 q=-0.0 size=   11498kB time=00:00:28.88 bitrate=3261.3kbits/s speed=0.0649x    frame=  756 fps=1.7 q=-0.0 size=   11498kB time=00:00:29.00 bitrate=3247.8kbits/s speed=0.0649x    frame=  757 fps=1.7 q=-0.0 size=   11498kB time=00:00:29.04 bitrate=3243.3kbits/s speed=0.0649x    frame=  758 fps=1.7 q=-0.0 size=   11498kB time=00:00:29.08 bitrate=3238.9kbits/s speed=0.0648x    frame=  759 fps=1.7 q=-0.0 size=   11498kB time=00:00:29.12 bitrate=3234.4kbits/s speed=0.0648x    frame=  761 fps=1.7 q=-0.0 size=   11498kB time=00:00:29.20 bitrate=3225.6kbits/s speed=0.0649x    frame=  762 fps=1.7 q=-0.0 size=   11498kB time=00:00:29.24 bitrate=3221.1kbits/s speed=0.0648x    frame=  764 fps=1.7 q=-0.0 size=   11498kB time=00:00:29.32 bitrate=3212.4kbits/s speed=0.0647x    frame=  765 fps=1.7 q=-0.0 size=   11498kB time=00:00:29.36 bitrate=3208.0kbits/s speed=0.0646x    frame=  767 fps=1.7 q=-0.0 size=   11498kB time=00:00:29.44 bitrate=3199.3kbits/s speed=0.0646x    frame=  768 fps=1.7 q=-0.0 size=   11498kB time=00:00:29.48 bitrate=3194.9kbits/s speed=0.0645x    frame=  770 fps=1.7 q=-0.0 size=   11498kB time=00:00:29.56 bitrate=3186.3kbits/s speed=0.0646x    frame=  771 fps=1.7 q=-0.0 size=   11498kB time=00:00:29.60 bitrate=3182.0kbits/s speed=0.0646x    frame=  773 fps=1.7 q=-0.0 size=   11498kB time=00:00:29.68 bitrate=3173.4kbits/s speed=0.0646x    frame=  775 fps=1.7 q=-0.0 size=   11498kB time=00:00:29.76 bitrate=3164.9kbits/s speed=0.0646x    frame=  776 fps=1.7 q=-0.0 size=   11498kB time=00:00:29.80 bitrate=3160.6kbits/s speed=0.0645x    frame=  777 fps=1.7 q=-0.0 size=   11498kB time=00:00:29.84 bitrate=3156.4kbits/s speed=0.0643x    frame=  779 fps=1.7 q=-0.0 size=   11498kB time=00:00:29.92 bitrate=3147.9kbits/s speed=0.0644x    frame=  780 fps=1.7 q=-0.0 size=   11498kB time=00:00:29.96 bitrate=3143.7kbits/s speed=0.0644x    frame=  781 fps=1.7 q=-0.0 size=   11498kB time=00:00:30.00 bitrate=3139.5kbits/s speed=0.0643x    frame=  783 fps=1.7 q=-0.0 size=   11498kB time=00:00:30.08 bitrate=3131.2kbits/s speed=0.0644x    frame=  784 fps=1.7 q=-0.0 size=   11498kB time=00:00:30.12 bitrate=3127.0kbits/s speed=0.0644x    frame=  786 fps=1.7 q=-0.0 size=   11498kB time=00:00:30.20 bitrate=3118.8kbits/s speed=0.0644x    frame=  788 fps=1.7 q=-0.0 size=   11498kB time=00:00:30.28 bitrate=3110.5kbits/s speed=0.0645x    frame=  791 fps=1.7 q=-0.0 size=   11498kB time=00:00:30.40 bitrate=3098.2kbits/s speed=0.0646x    frame=  795 fps=1.7 q=-0.0 size=   11498kB time=00:00:30.56 bitrate=3082.0kbits/s speed=0.0648x    frame=  796 fps=1.7 q=-0.0 size=   11498kB time=00:00:30.60 bitrate=3078.0kbits/s speed=0.0647x    frame=  797 fps=1.7 q=-0.0 size=   11498kB time=00:00:30.64 bitrate=3074.0kbits/s speed=0.0647x    frame=  799 fps=1.7 q=-0.0 size=   11498kB time=00:00:30.72 bitrate=3066.0kbits/s speed=0.0648x    frame=  801 fps=1.7 q=-0.0 size=   11498kB time=00:00:30.80 bitrate=3058.0kbits/s speed=0.0648x    frame=  802 fps=1.7 q=-0.0 size=   11498kB time=00:00:30.84 bitrate=3054.0kbits/s speed=0.0648x    frame=  804 fps=1.7 q=-0.0 size=   11498kB time=00:00:30.92 bitrate=3046.1kbits/s speed=0.0648x    frame=  805 fps=1.7 q=-0.0 size=   11498kB time=00:00:30.96 bitrate=3042.2kbits/s speed=0.0648x    frame=  807 fps=1.7 q=-0.0 size=   11498kB time=00:00:31.04 bitrate=3034.4kbits/s speed=0.0649x    frame=  809 fps=1.7 q=-0.0 size=   11498kB time=00:00:31.12 bitrate=3026.6kbits/s speed=0.0649x    frame=  811 fps=1.7 q=-0.0 size=   11498kB time=00:00:31.20 bitrate=3018.8kbits/s speed=0.0649x    frame=  813 fps=1.7 q=-0.0 size=   11498kB time=00:00:31.28 bitrate=3011.1kbits/s speed=0.0647x    frame=  815 fps=1.7 q=-0.0 size=   11498kB time=00:00:31.36 bitrate=3003.4kbits/s speed=0.0648x    frame=  816 fps=1.7 q=-0.0 size=   11498kB time=00:00:31.40 bitrate=2999.6kbits/s speed=0.0647x    frame=  817 fps=1.7 q=-0.0 size=   11498kB time=00:00:31.44 bitrate=2995.8kbits/s speed=0.0648x    frame=  819 fps=1.7 q=-0.0 size=   11498kB time=00:00:31.52 bitrate=2988.2kbits/s speed=0.0648x    frame=  819 fps=1.7 q=-0.0 size=   11498kB time=00:00:31.52 bitrate=2988.2kbits/s speed=0.0645x    frame=  819 fps=1.6 q=-0.0 Lsize=   14629kB time=00:00:32.64 bitrate=3671.5kbits/s speed=0.0648x    
video:14620kB audio:0kB subtitle:0kB other streams:0kB global headers:2kB muxing overhead: 0.061159%
x265 [info]: frame I:      8, Avg QP:29.70  kb/s: 13838.00
x265 [info]: frame P:    541, Avg QP:30.76  kb/s: 4181.29 
x265 [info]: frame B:    270, Avg QP:33.07  kb/s: 2299.03 
x265 [info]: Weighted P-Frames: Y:50.1% UV:0.0%
x265 [info]: consecutive B-frames: 67.6% 20.6% 8.4% 2.0% 1.5% 

encoded 819 frames in 503.88s (1.63 fps), 3655.09 kb/s, Avg QP:31.51
